<svg width="700" height="700" viewBox="0 0 700 700" fill="none"
    xmlns="http://www.w3.org/2000/svg">
    <path d="M0 47.1112C0 29.4618 21.1949 20.464 33.8919 32.7232L138.892 134.103C142.795 137.871 145 143.065 145 148.491V680C145 691.046 136.046 700 125 700H20C8.95431 700 0 691.046 0 680V47.1112Z" fill="#663399"/>
    <path d="M185 228.61C185 210.677 206.781 201.807 219.31 214.638L324.31 322.172C327.958 325.909 330 330.923 330 336.145V680C330 691.046 321.046 700 310 700H205C193.954 700 185 691.046 185 680V228.61Z" fill="#663399"/>
    <path d="M555 20C555 8.9543 563.954 0 575 0H680C691.046 0 700 8.95431 700 20V651.126C700 669.027 678.287 677.912 665.738 665.147L560.738 558.336C557.06 554.596 555 549.561 555 544.316V20Z" fill="#663399"/>
    <path d="M370 20C370 8.9543 378.954 0 390 0H495C506.046 0 515 8.95431 515 20V466.006C515 483.638 493.84 492.643 481.134 480.418L376.134 379.401C372.215 375.631 370 370.427 370 364.988V20Z" fill="#663399"/>
</svg>
